<svg version="1.1" xmlns="http://www.w3.org/2000/svg" xmlns:xlink="http://www.w3.org/1999/xlink" width="220" height="229" viewBox="0,0,220,229"><g transform="translate(-134.5,-53.3)"><g data-paper-data="{&quot;isPaintingLayer&quot;:true}" fill-rule="nonzero" stroke-linecap="butt" stroke-linejoin="miter" stroke-miterlimit="10" stroke-dasharray="" stroke-dashoffset="0" style="mix-blend-mode: normal"><path d="M135.5,281.30001v-227h218v227z" fill="#9966ff" stroke="#000000" stroke-width="2"/><path d="M194.89462,243.39936c-0.33133,2.08349 -1.7044,6.40064 -7.39462,6.40064c-7.5,0 -7.5,-7.5 -7.5,-7.5l1.25962,-5.16025c1.23799,-1.75844 1.71068,-3.96542 2.8605,-5.78273c1.67944,-2.6544 3.67261,-3.50307 5.57982,-5.81193c0.76541,-0.9266 1.20847,-2.09561 2,-3c1.35743,-1.55099 2.76758,-3.09044 4.41474,-4.3294c1.19132,-0.89609 2.85589,-1.04437 4,-2c2.72314,-2.27454 4.8581,-5.18157 7.47131,-7.58159c4.94682,-4.54324 10.79748,-7.99292 16.11423,-12.09709c4.3877,-3.38701 8.44655,-7.21547 12.23323,-11.26329c1.16935,-1.24998 2.21233,-2.61086 3.23254,-3.99128c-1.51362,-2.08277 -3.38202,-5.17614 -4.07599,-6.28747c-2.71116,-4.34167 -5.59737,-8.57893 -8.13146,-13.02629c-1.77337,-3.11229 -2.82422,-6.62294 -4.77605,-9.62653c-2.22047,-3.41699 -5.19463,-6.28287 -7.66733,-9.52201c-6.64906,-8.71002 -12.15716,-18.2756 -18.91963,-26.89551c-2.01729,-2.57138 -4.42768,-4.82829 -6.34365,-7.47602c-2.16537,-2.99239 -3.899,-6.84848 -5.99225,-9.98835c0,0 -4.16025,-6.24038 2.08013,-10.40063c6.24038,-4.16025 10.40063,2.08013 10.40063,2.08013c2.10961,3.16441 3.80838,7.00515 6.00775,10.01165c1.69935,2.32299 3.87642,4.26214 5.65635,6.52398c6.83054,8.67988 12.39391,18.31353 19.08037,27.10449c2.70152,3.5518 5.90028,6.73673 8.33267,10.47799c2.11029,3.24583 3.30634,7.01022 5.22395,10.37347c1.97249,3.45949 4.17398,6.7821 6.32369,10.13568c1.8292,-6.07094 3.55928,-12.55082 4.01971,-18.83871c4.73554,-7.07351 9.3641,-14.32093 13.73524,-21.57128c1.24541,-2.06573 1.90818,-4.46916 3.29556,-6.44234c1.63589,-2.32661 4.94317,-4.41222 6.44097,-7.09547c0.71581,-1.28234 0.77786,-2.91518 1.68304,-4.07165c0.94017,-1.20118 2.5828,-1.66786 3.657,-2.75085c0.67506,-0.68059 0.87939,-1.7238 1.50323,-2.45162c0.22,-0.25666 6.48565,-6.55476 7.49677,-7.54838c1.6307,-1.60249 3.09571,-3.40024 4.91797,-4.78102c0.99674,-0.75526 2.44554,-0.75674 3.42181,-1.53827c0.6321,-0.50601 0.66468,-1.4945 1.16345,-2.13233c0.13817,-0.17669 0.28343,-0.34717 0.43378,-0.51319c0.37813,-2.13864 1.82558,-6.23189 7.36629,-6.23189c7.5,0 7.5,7.5 7.5,7.5l-2.1967,7.3033c-1.64612,1.58959 -2.59932,3.83359 -4.33978,5.31929c-1.31785,1.12494 -3.18644,1.42962 -4.57819,2.46173c-3.15843,2.34225 -7.03184,6.69161 -9.58526,9.6706c-0.94121,1.09808 -1.46964,2.53022 -2.49677,3.54838c-0.62857,0.62309 -1.77488,0.57049 -2.343,1.24915c-0.41814,0.49949 0.01128,1.36568 -0.31696,1.92835c-1.13097,1.93873 -2.52489,3.72211 -3.97744,5.43321c-1.07596,1.26748 -2.63163,2.10684 -3.58159,3.47131c-1.17716,1.69083 -1.64856,3.78855 -2.70444,5.55766c-0.85417,1.43114 -2.11537,2.58748 -3,4c-3.0551,4.87821 -5.15954,10.20464 -9.26476,14.42872c0.47135,2.32199 -0.44405,4.73891 -1.04467,7.03087c-1.1955,4.56208 -2.8365,14.6361 -6.36225,19.95152c-0.11827,0.17831 -0.2334,0.36213 -0.34616,0.55023c1.29762,4.04261 -2.05874,7.39897 -2.05874,7.39897c-2.95268,2.90457 -4.90373,6.70158 -7.73675,9.72298c-4.27613,4.56046 -8.82979,8.90145 -13.76677,12.73671c-5.22534,4.05927 -11.004,7.43634 -15.88577,11.90291c-2.94712,2.69647 -5.45731,5.86437 -8.52869,8.41841c-1.14619,0.95313 -2.75423,1.18129 -4,2c-1.51648,0.99662 -2.56227,3.45189 -3.58526,4.6706c-1.30496,1.55462 -3.47895,2.38977 -4.42018,4.18807c-0.71094,1.3583 -1.30259,2.78343 -1.98526,4.15637z" fill="#ff0000" stroke="none" stroke-width="0.5"/></g></g></svg>