<svg version="1.1" xmlns="http://www.w3.org/2000/svg" xmlns:xlink="http://www.w3.org/1999/xlink" width="220" height="229" viewBox="0,0,220,229"><g transform="translate(-134.5,-53.30001)"><g data-paper-data="{&quot;isPaintingLayer&quot;:true}" fill-rule="nonzero" stroke-linecap="butt" stroke-linejoin="miter" stroke-miterlimit="10" stroke-dasharray="" stroke-dashoffset="0" style="mix-blend-mode: normal"><path d="M135.5,281.30001v-227h218v227z" fill="#9966ff" stroke="#000000" stroke-width="2"/><path d="M269.8033,113.9967c4.58851,4.58851 1.23689,9.17703 0.25007,10.33057c-0.10154,0.29925 -0.20308,0.5985 -0.30462,0.89774c-1.41009,6.84896 -0.74875,14.09735 -0.74875,21.07499c0,8.08235 -0.67441,16.42135 -0.01887,24.46833c0.40361,4.95444 2.44514,9.67146 2.96268,14.61529c0.02733,0.26112 0.10332,22.63246 0.04849,23.25623c-0.43967,5.00219 0.53313,10.74066 -2.29764,14.88818c-7.53949,11.04649 -10.37781,5.12831 -16.13764,2.15185c-0.72206,-0.37314 -1.63268,-0.26442 -2.35215,-0.64252c-4.57194,-2.40265 -7.79752,-6.22175 -11.37077,-9.82335c-3.09028,-4.12037 -7.17445,-7.24121 -10.24564,-11.29842c-2.7116,-3.58218 -4.70241,-7.6622 -7.26095,-11.35527c-4.29716,-6.20265 -9.20536,-11.98542 -13.23621,-18.36435c-1.63399,-2.58583 -2.58507,-5.55361 -4.1178,-8.20073c-3.5228,-6.08409 -5.69141,-8.8349 -7.9735,-12.51404c0,6.9396 0,13.8792 0,20.8188c0,1.62193 0.01354,11.19563 -0.05619,11.91637c-0.13236,1.36798 -0.84062,2.6349 -1,4c-0.50024,4.28455 0.05619,9.90366 0.05619,14.08363c0,6.20721 -0.69761,12.91036 -0.05619,19.08363c0.3093,2.97688 1.02199,5.92367 1.05619,8.91637c0,0 0,7.5 -7.5,7.5c-7.5,0 -7.5,-7.5 -7.5,-7.5c0.0434,-2.38168 -0.7144,-4.71262 -0.94381,-7.08363c-0.88248,-9.12092 -0.05619,-18.75211 -0.05619,-27.91637c0,-1.77805 -0.0095,-8.29962 0.05619,-8.91637c0.14556,-1.36664 0.85797,-2.63299 1,-4c0.34737,-3.34326 -0.05619,-6.72236 -0.05619,-10.08363c0,-13.33333 0,-26.66667 0,-40c0,-4.62912 -0.29746,-9.37841 0,-14c0.12627,-1.96188 -0.75424,-4.41791 0.5709,-5.87013c2.79553,-3.0636 6.52082,-6.79245 10.65224,-6.42924c3.38148,0.29728 4.5727,5.06182 6.39198,7.92766c1.62956,2.56698 0.59306,6.06806 1.26453,9.03352c1.1185,4.93976 3.27461,9.60761 5.42839,14.19166c3.53395,7.52158 7.43883,12.05829 11.71846,19.45128c1.45489,2.5133 2.33208,5.34357 3.8822,7.79927c3.87348,6.13637 8.63509,11.668 12.76379,17.63565c2.38935,3.45357 4.24023,7.26952 6.73905,10.64473c2.83544,3.8299 6.83839,6.81361 9.75436,10.70158c1.68162,1.66461 3.49232,4.16421 5.59655,5.5854c0.10546,-1.01428 0.26189,-2.04218 0.24524,-3.01125c-0.11878,-6.91359 0.77695,-13.86764 0.04849,-20.74377c-0.55069,-5.19813 -2.59563,-10.17618 -3.03732,-15.38471c-0.59936,-7.06783 -0.01887,-14.44196 -0.01887,-21.53167c0,-9.70292 -0.62144,-19.38858 1.25125,-28.92501c0.37787,-1.1489 0.75575,-2.2978 1.13362,-3.4467l2.81182,-3.93159c0,0 5.3033,-5.3033 10.6066,0z" fill="#ff0000" stroke="none" stroke-width="0.5"/></g></g></svg>