<svg version="1.1" xmlns="http://www.w3.org/2000/svg" xmlns:xlink="http://www.w3.org/1999/xlink" width="423.5732" height="389.53048" viewBox="0,0,423.5732,389.53048"><g transform="translate(9.75,15.95)"><g data-paper-data="{&quot;isPaintingLayer&quot;:true}" fill="#5a00ff" fill-rule="nonzero" stroke="none" stroke-width="0.5" stroke-linecap="butt" stroke-linejoin="miter" stroke-miterlimit="10" stroke-dasharray="" stroke-dashoffset="0" style="mix-blend-mode: normal"><path d="M129.5,130.05c6.25,0 6.25,6.25 6.25,6.25c0,6 0,14 0,20c0,8.64627 1.09282,17.99539 -0.02525,26.56128c-0.72377,5.54503 -2.14515,10.97795 -3.06447,16.49393c-0.74119,4.44722 -1.58255,8.89239 -1.926,13.38785c-0.1605,2.10077 0.17835,4.22414 -0.0311,6.32059c-0.13663,1.36756 -0.842,2.63474 -1,4c-0.77592,6.70469 -0.33234,13.9809 -0.08481,20.98635c3.96055,0 7.92109,0 11.88164,0c17,0 34,0 51,0h1c0,0 6.25,0 6.25,6.25c0,6.25 -6.25,6.25 -6.25,6.25c-17,0 -35,0 -52,0c-12,0 -24,0 -36,0c-5.83583,0 -12.21768,0.66052 -18.00114,-0.0807c-2.81442,-0.3607 -5.36162,-1.30178 -7.98306,-2.01912c0.36039,4.53971 0.23419,9.08461 0.23419,13.84983c0,2.16157 0.0879,6.77188 -0.47575,8.39177c-0.39004,1.12094 -1.78971,1.63367 -2.3355,2.6876c-0.77913,1.50451 -0.9749,3.25329 -1.26945,4.92177c-0.3477,1.96954 0.32671,4.02687 0,6c-0.23343,1.40979 -1.3865,4.36551 -2,6c0.38621,9.56557 0.4684,19.37676 -0.96612,28.76251c-0.63178,4.13359 0.04683,9.03733 0.04683,13.23635c0,7.33333 0,14.66667 0,22c0,0 0,6.25 -6.25,6.25c-6.25,0 -6.25,-6.25 -6.25,-6.25c0,-8.66667 0,-17.33333 0,-26c0,-3.49642 -0.41993,-7.30201 0.04683,-10.76365c0.18365,-1.36204 0.82052,-2.6374 1,-4c0.31501,-2.39151 -0.04683,-4.82419 -0.04683,-7.23635c0,-6.0008 -0.04031,-12.00143 0.0807,-18.00114c0.62778,-2.01254 1.64906,-3.92123 2,-6c0.33293,-1.97209 -0.31838,-4.0255 0,-6c0.50304,-3.1197 1.35019,-6.23566 2.73055,-9.07823c0.30864,-0.63558 1.29265,-0.71162 1.6645,-1.3124c0.13546,-0.21887 -0.44211,-0.35304 -0.47575,-0.60823c-0.13072,-0.99142 0,-2 0,-3c0,-5.5389 0.57757,-11.44175 -0.18875,-16.92063l-0.98067,-0.65995c0,0 -4.41942,-4.41942 0,-8.83883c3.10501,-3.10501 6.21001,-1.84696 7.78232,-0.82398c5.60916,0.14878 10.24671,2.42673 15.63824,3.0741c5.12974,0.61593 10.82282,-0.0807 15.99886,-0.0807c3.88114,0 7.76228,0 11.64342,0c-0.21701,-7.50671 -0.62682,-15.23656 0.15341,-22.51365c0.14652,-1.36654 0.86311,-2.63247 1,-4c0.18856,-1.88375 -0.17727,-3.7919 -0.0311,-5.67941c0.78814,-10.17784 3.63282,-20.04103 5.00953,-30.11823c0.29052,-2.1265 -0.02525,-4.29246 -0.02525,-6.43872c0,-6.33333 0,-12.66667 0,-19c0,-6 0,-12 0,-18v-2c0,0 0,-6.25 6.25,-6.25z"/><path d="M69.5,41.05c6.25,0 6.25,6.25 6.25,6.25c0,7.33333 0,16.66667 0,24c0,0.6156 0.06277,8.54079 -0.16719,9.43596c-0.37092,1.44383 -1.53361,2.58413 -2,4c-0.4763,1.44594 0.16719,3.04168 0.16719,4.56404c0,1.23679 0.00983,7.32157 -0.04683,7.76365c-0.31856,2.48562 -1.6793,4.75676 -2.03388,7.23749c-0.43973,3.07654 0.30238,6.30925 1.03388,9.23522c-0.04166,5.85979 -0.64534,11.57087 -6.8114,14.53789c-1.17137,0.56365 -6.47879,0.47575 -8.39177,0.47575c-5.66667,0 -11.33333,0 -17,0c-9.32996,0 -18.19563,1.05534 -27.38414,1.96958c-1.57525,0.15673 -3.18775,-0.29177 -4.74898,-0.02999c-2.39329,0.40129 -4.60907,1.58487 -7,2c-1.5985,0.27754 -3.24459,0.04027 -4.86688,0.06041c0,0 -6.25,0 -6.25,-6.25c0,-6.25 6.25,-6.25 6.25,-6.25c3.43839,0.0663 6.74035,-1.37741 10.13312,-1.93959c1.72682,-0.28613 3.50942,0.145 5.25102,-0.02999c7.92268,-0.79605 15.56141,-2.02024 23.61586,-2.03042c5.33331,-0.00674 10.66668,0 16,0c2,0 4,0 6,0c0.66498,0 1.79878,-0.20337 2.62532,-0.19733c0.09036,-0.2801 0.17772,-0.56272 0.17151,-0.78903c-1.0342,-4.1368 -1.5793,-8.47127 -0.96612,-12.76478c0.33189,-2.32393 1.68627,-4.43174 1.96612,-6.76251c0.52688,-4.38807 -0.98919,-9.3533 0.12037,-13.67231c0.37092,-1.44383 1.53361,-2.58413 2,-4c0.68478,-2.07885 -0.16719,-4.37532 -0.16719,-6.56404c0,-7.33333 0,-14.66667 0,-22v-2c0,0 0,-6.25 6.25,-6.25z"/><path d="M397.25,120.3c0,-1.51092 0.36526,-2.65658 0.91918,-3.52528c-0.15919,-4.16374 -0.44773,-8.52896 0.16152,-12.47585c0.16081,-1.04175 0.80935,-1.96329 1,-3c0.61474,-3.34279 -0.0807,-7.57944 -0.0807,-10.99886c0,-10 0,-20 0,-30c0.07714,-3.82444 1.47466,-6.4113 2.0807,-10.00114c0.89061,-5.27543 -0.0807,-11.61774 -0.0807,-16.99886c0,-11.33333 0,-22.66667 0,-34c0,0 0,-6.25 6.25,-6.25c6.25,0 6.25,6.25 6.25,6.25c0,16.33079 0.16471,32.67023 0,49c-0.04313,4.27587 -2.16561,7.89817 -2,12c0,10 0,20 0,30c0,4.17533 0.55543,8.88004 -0.0807,13.00114c-0.16081,1.04175 -0.80935,1.96329 -1,3c-0.78565,4.27212 0.0807,9.62908 0.0807,13.99886l-7.25,6.25c0,0 -6.25,0 -6.25,-6.25z"/><path d="M398.5,369.55c-6.25,0 -6.25,-6.25 -6.25,-6.25c0,-7.66667 0,-17.33333 0,-25c0,-5.97824 -0.21858,-11.65704 1.18661,-17.51585c0.60494,-2.41977 1.59073,-4.76816 1.86022,-7.2478c1.09866,-10.10901 -0.86604,-20.60814 -0.02553,-30.75186c0.36005,-4.34527 1.71097,-8.57661 1.99443,-12.92755c1.33607,-20.50793 1.98428,-40.98778 1.98428,-61.55694c0,0 0,-6.25 6.25,-6.25c6.25,0 6.25,6.25 6.25,6.25c0,8.73141 0.60008,17.68549 -0.01208,26.38836c-0.65385,9.29563 -1.52603,18.53621 -1.99332,27.87138c-0.13637,2.72436 0.17487,5.46184 -0.01032,8.18331c-0.2993,4.39829 -1.63704,8.67941 -2.00557,13.07245c-0.86501,10.31135 1.13572,20.95698 -0.02553,31.24814c-0.05088,0.45089 -1.93383,7.9284 -2.13978,8.7522c-1.26136,4.76232 -0.81339,9.58459 -0.81339,14.48415c0,7.66667 0,15.33333 0,23v2c0,0 0,6.25 -6.25,6.25z"/><path d="M272.75,280.3c0,6.25 -6.25,6.25 -6.25,6.25h-2c-4.65382,0 -8.71983,-0.17596 -13.23635,0.95317c-9.2543,0.07519 -18.50907,0.04683 -27.76365,0.04683c-3.39089,0 -7.13773,0.34124 -10.5155,-0.0213c-9.19317,-0.9867 -18.1943,-0.9787 -27.4845,-0.9787c-5.51898,0 -11.04863,-0.35874 -16.55694,-0.01572c-5.05269,0.31464 -10.00499,1.6443 -15.0547,2.00365c-5.96437,0.42444 -12.10505,0.1383 -18.13836,0.04101c0,3.57369 0,7.14738 0,10.72107c0,3.24098 -0.53646,7.0328 -0.04683,10.23635c0.61428,4.01908 1.51844,7.96859 2,12c1.18857,9.95028 0.05979,20.72629 0.04683,30.76365c-0.00603,4.66747 0.13003,9.3715 0.91496,13.97251c0,0 1.02749,6.16496 -5.13747,7.19246c-6.16496,1.02749 -7.19246,-5.13747 -7.19246,-5.13747c-1.31472,-8.04841 -1.08504,-15.88636 -1.08504,-24.02749c0,-6.8856 0.94243,-14.43708 0.04683,-21.23635c-0.53121,-4.03288 -1.45637,-7.96824 -2,-12c-0.64042,-4.74962 -0.04683,-9.96825 -0.04683,-14.76365c0,-3.45401 -0.59866,-7.59249 0,-11c0.44078,-2.50888 0.02937,-5.6182 1.83058,-7.41942c1.80122,-1.80122 4.94628,-1.22039 7.41942,-1.83058c6.80416,0 13.8316,0.4984 20.61164,0.01208c5.01314,-0.35959 9.92914,-1.68181 14.9453,-1.99635c0.32157,-0.02016 16.28208,-0.01572 17.44306,-0.01572c9.62192,0 18.98833,-0.07768 28.5155,1.0213c3.02266,0.34867 6.45724,-0.0213 9.4845,-0.0213c8.7451,0 17.49176,-0.04983 26.23635,0.04683c4.96526,-1.24131 9.66731,-1.04683 14.76365,-1.04683h2c0,0 6.25,0 6.25,6.25z"/><path d="M244.26364,92.8548c0.05229,0.15738 0.10741,0.31367 0.16563,0.46878zM243.99978,91.96569c0.57925,0.63282 3.98009,4.69328 -0.08036,8.75373c-4.41942,4.41942 -8.83883,0 -8.83883,0l-2.50985,-3.44299c-1.24197,-3.98152 -1.24408,-7.54436 -2.16847,-11.60525c-0.9721,-4.27051 -2.11128,-7.9587 -2.07156,-12.37004c-1.78534,-5.35603 -0.06322,-10.69367 -1,-16c-0.58985,-3.34114 -2.45686,-6.6316 -3,-10c-0.50313,-3.12024 -0.0865,-6.82693 -0.0807,-10.00114c0.0071,-3.88452 -0.73389,-7.73543 -0.98792,-11.61164c-0.14216,-2.16923 0.35576,-4.36944 0.04833,-6.52148c-0.31898,-2.23294 -1.39972,-4.2947 -1.90741,-6.49243c-1.7027,-7.37088 -2.153,-14.85222 -2.153,-22.37445c0,0 0,-6.25 6.25,-6.25c6.25,0 6.25,6.25 6.25,6.25c0,6.60206 0.35422,13.15027 1.847,19.62555c0.5836,2.53152 1.72518,4.93576 2.09259,7.50757c0.35256,2.46784 -0.12012,4.99133 0.04833,7.47852c0.27997,4.13374 1.0053,8.24515 1.01208,12.38836c0.00404,2.4698 -0.50866,5.57473 -0.0807,7.99886c0.58985,3.34114 2.45686,6.6316 3,10c0.87687,5.43805 -0.78543,10.64371 1,16c0.03475,4.34709 1.00985,7.41236 1.92844,11.62996c0.64397,2.95676 0.63838,6.1451 1.40205,9.03686z"/></g></g></svg>