<svg version="1.1" xmlns="http://www.w3.org/2000/svg" xmlns:xlink="http://www.w3.org/1999/xlink" width="532.5" height="369.5" viewBox="0,0,532.5,369.5"><g transform="translate(24.75,-11.05)"><g data-paper-data="{&quot;isPaintingLayer&quot;:true}" fill="#5a00ff" fill-rule="nonzero" stroke="none" stroke-width="0.5" stroke-linecap="butt" stroke-linejoin="miter" stroke-miterlimit="10" stroke-dasharray="" stroke-dashoffset="0" style="mix-blend-mode: normal"><path d="M67.25,291.3c0,-23.33333 0,-46.66667 0,-70c0,0 0,-6.25 6.25,-6.25c6.25,0 6.25,6.25 6.25,6.25c0,23.33333 0,46.66667 0,70c0,1 0,2 0,3v0.75403c0.24808,-0.00254 0.49802,-0.00403 0.75,-0.00403c3.42808,0 6.79126,0.53397 10.02358,-0.67927l2.97642,-0.32073c0,0 6.25,0 6.25,6.25c0,6.25 -6.25,6.25 -6.25,6.25l0.97642,-0.32073c-4.73523,1.47708 -9.05136,1.32073 -13.97642,1.32073c-4.80688,0 -9.40376,0.45176 -14.00114,-1.0807c-6.11797,0.16464 -11.37086,-1.43835 -17.44192,-1.93502c-7.38385,-0.60408 -15.14709,0.01572 -22.55694,0.01572c-13.66667,0 -27.33333,0 -41,0c0,0 -6.25,0 -6.25,-6.25c0,-6.25 6.25,-6.25 6.25,-6.25c13.66667,0 27.33333,0 41,0c7.70296,0 15.76836,-0.6334 23.44306,0.01572c3.82014,0.3231 7.53054,1.45367 11.32059,2.0311c1.97335,0.30065 3.98453,0.10033 5.98635,0.04427c0,-1.10671 0,-2.28412 0,-2.8411z"/><path d="M400.5,183.55c-6.25,0 -6.25,-6.25 -6.25,-6.25l0.32073,-2.97642c2.05034,-5.46249 0.67927,-13.18565 0.67927,-19.02358c0,-5.23182 -0.5423,-10.81221 0.0807,-16.00114c0.12566,-1.04658 0.80935,-1.96329 1,-3c1.01133,-5.49933 -0.0807,-12.31939 -0.0807,-17.99886c0,-16.89204 0,-33.78408 0,-50.67613c-1.84518,-0.14995 -3.68725,-0.07388 -5.74996,-0.07388h-2c0,0 -6.25,0 -6.25,-6.25h-0.00004c0,-6.25 6.25,-6.25 6.25,-6.25h2c4.1726,0 8.0058,-0.25108 12.00114,1.0807c8.71503,-0.16761 17.34706,3.11432 26.23522,1.96612c5.02743,-0.64945 10.0572,-2.64542 15.14779,-3.01641c5.02014,-0.36586 10.08431,0.40915 15.10036,-0.00912c4.04115,-0.33698 7.95417,-1.72481 12,-2c2.91057,-0.19797 5.84082,0.21651 8.75186,0.02553c1.31718,-0.08641 5.75124,-1.80306 6.76251,-1.96612c0.66725,-0.10759 7.33183,-0.0807 8.00114,-0.0807c0,0 6.25,0 6.25,6.25c0,6.25 -6.25,6.25 -6.25,6.25c-1.9998,0 -4.02951,-0.42837 -5.99886,-0.0807c-2.46779,0.43566 -4.74082,1.81846 -7.23749,2.03388c-3.07131,0.265 -6.17196,-0.17524 -9.24814,0.02553c-4.04657,0.26411 -7.95882,1.66342 -12,2c-4.94941,0.41223 -9.94512,-0.35458 -14.89964,-0.00912c-4.98176,0.34736 -9.91694,2.38165 -14.85221,2.98359c-7.28763,0.88884 -14.38984,-0.48841 -21.51141,-1.37886c0.0197,21.72444 0.15709,43.45278 -0.00227,65.17569c-0.01732,2.36129 -0.77318,4.6599 -1.0807,7.00114c-0.58876,4.48238 0.0807,9.45849 0.0807,13.99886c0,7.57842 0.94285,15.71983 -1.32073,22.97642l0.32073,-0.97642c0,0 0,6.25 -6.25,6.25z"/><path d="M278.75,224.3c0,6.25 -6.25,6.25 -6.25,6.25l-0.02358,-0.32073c-3.61924,1.12896 -7.45679,1.76745 -11.21278,2.2739c-1.90364,0.25668 -3.86844,-0.35364 -5.76251,-0.03388c-2.07877,0.35094 -3.92013,1.65562 -6,2c-3.48104,0.57639 -7.46787,0.0807 -11.00114,0.0807c-6.54684,0 -12.60083,-0.02121 -19.05521,-1.08972c-6.23552,-1.03228 -14.16435,-1.07063 -19.69851,-4.4655c0.01439,1.25686 -0.08939,2.51623 -0.47204,3.69699c-0.29065,0.89689 -1.5243,1.186 -2,2c-0.12987,0.22223 0.44211,0.35304 0.47575,0.60823c0.13072,0.99142 0,2 0,3c0,2 0,4 0,6c0,4.82153 0.65379,10.24287 -0.0807,15.00114c-0.46535,3.01467 -1.55191,5.98374 -2,9c-0.31362,2.11111 0.19077,4.33833 -0.39505,6.39063c-0.25878,0.9066 -1.67436,1.11521 -2,2c-0.26115,0.70955 0.50322,1.47023 0.44534,2.22409c-0.19005,2.47522 -1.00125,4.90183 -0.96958,7.38414c0,6.1078 0.85283,12.95341 -0.0807,19.00114c-0.16081,1.04175 -0.84033,1.95807 -1,3c-0.76326,4.98064 0.0807,10.95644 0.0807,15.99886c0,7.76014 -1.06371,16.5163 -0.04683,24.23635c0.17948,1.3626 0.88766,2.63023 1,4c0.05573,0.67954 0.04683,11.40549 0.04683,13.76365c0,0 0,6.25 -6.25,6.25c-6.25,0 -6.25,-6.25 -6.25,-6.25c0,-4.07881 0.39159,-8.17214 0.04683,-12.23635c-0.11617,-1.36945 -0.83699,-2.63533 -1,-4c-0.49443,-4.13922 -0.04683,-8.58973 -0.04683,-12.76365c0,-8.66526 -0.07769,-17.33497 0,-26c0.02413,-2.69116 0.59394,-5.35426 1.0807,-8.00114c0.30142,-1.63902 -0.0807,-3.33236 -0.0807,-4.99886c0,-4 0,-8 0,-12c0.02433,-2.89232 0.64591,-5.74911 1.03042,-8.61586c0.2567,-1.91388 -0.13395,-3.93383 0.44534,-5.77591c0.28283,-0.89938 1.74065,-1.09356 2,-2c0.33293,-1.16361 -0.50537,-2.4041 -0.39505,-3.60937c0.26999,-2.94978 1.46126,-6.07051 2,-9c0.89533,-4.86855 -0.0807,-11.02133 -0.0807,-15.99886c0,-3.40278 -0.58637,-8.22062 0.47575,-11.39177c0.29943,-0.894 1.68998,-1.10962 2,-2c0.28927,-0.83078 -0.61709,-1.75815 -0.39505,-2.60937c0.58747,-2.25216 1.10407,-4.77247 2.74988,-6.41828c3.65972,-3.65972 7.87332,-2.70295 12.23057,-2.56241c4.0762,2.51312 7.49479,3.0313 12.24406,3.82155c6.87704,1.1443 13.01421,1.91028 19.94479,1.91028c4.05701,0 9.02629,0.75136 12.99886,0.0807c2.07877,-0.35094 3.92013,-1.65562 6,-2c4.99133,-0.82646 10.20577,0.04881 15.02472,-1.75997l3.97642,-0.32073c0,0 6.25,0 6.25,6.25z"/><path d="M243.5,380.55c-6.25,0 -6.25,-6.25 -6.25,-6.25c0,-5 0,-11 0,-16c0,-3.17794 -0.42311,-6.87665 0.0807,-10.00114c0.3737,-2.31757 1.63397,-4.43862 1.96612,-6.76251c0.40925,-2.86327 -0.04683,-6.36863 -0.04683,-9.23635c0,-3.79473 0.33885,-7.60197 0.03042,-11.38414c-0.96092,-11.78332 -6.12571,-22.58007 -5.94971,-34.617c0.61758,-1.76156 0.85593,-3.70643 1.85273,-5.28468c3.0098,-4.76548 6.25157,-4.1902 10.57062,-6.32865c1.37175,-0.67918 2.45718,-1.96777 3.9348,-2.36735c3.70064,-1.00074 8.91418,-0.26817 12.81115,-0.26817c7.66667,0 15.33333,0 23,0c6.49692,0 14.93481,1.94516 20.53312,-1.95031c0,0 5.20031,-3.46688 8.66719,1.73344c3.46688,5.20031 -1.73344,8.66719 -1.73344,8.66719c-6.58591,4.27297 -11.79192,4.04969 -19.46688,4.04969c-10.33333,0 -20.66667,0 -31,0c-2.33333,0 -4.66885,0.10101 -7,0c-0.73438,-0.03182 -1.4889,-0.49268 -2.18885,-0.26817c-0.8356,0.26802 -1.28194,1.23697 -2.0652,1.63265c-1.15123,0.58155 -5.25205,0.81002 -5.57665,2.38667c0.44869,10.74307 5.1486,20.74827 6.05029,31.383c0.03707,0.43725 0.03042,10.88431 0.03042,12.61586c0,3.39525 0.43422,7.39526 -0.04683,10.76365c-0.35429,2.48078 -1.59821,4.76971 -2.03388,7.23749c-0.42755,2.42185 0.0807,5.53166 0.0807,7.99886c0,5 0,10 0,15v1c0,0 0,6.25 -6.25,6.25z"/><path d="M507.75,322.3c0,6.25 -6.25,6.25 -6.25,6.25l0.97642,-0.32073c-2.25442,0.70323 -4.64029,0.88686 -6.97528,1.24003c-2.08448,0.31527 -3.92013,1.65562 -6,2c-3.00554,0.49765 -5.21592,-0.3158 -8.23749,0.03388c-1.36526,0.158 -2.63533,0.83699 -4,1c-6.35694,0.75934 -13.35328,0.04683 -19.76365,0.04683c-8,0 -16,0 -24,0c-2.41217,0 -4.83831,-0.30745 -7.23635,-0.04683c-1.92765,0.2095 -3.97035,0.32883 -5.68428,1.23558c-1.04909,0.55501 -1.55101,1.99372 -2.6876,2.3355c-4.1192,1.23866 -10.52107,0.50585 -13.46204,-3.11981c-2.68325,-3.30794 -0.48398,-8.01008 -1.09903,-11.6533c-0.35094,-2.07877 -1.69312,-3.91427 -2,-6c-0.99073,-6.73358 -0.0807,-14.17609 -0.0807,-21.00114c0,-3.73826 -0.42652,-8.0703 0.04683,-11.76365c0.31856,-2.48562 1.62567,-4.76502 2.03388,-7.23749c0.19928,-1.20703 -0.27162,-2.51734 0.14608,-3.6672c0.77618,-2.1367 2.34017,-3.90409 3.34501,-5.94327c1.2856,-2.60895 1.02742,-4.68111 1.50891,-7.38953c0.25491,-1.43393 1.69394,-5.0953 2.16855,-6.74628c0.86613,-3.01292 2.0419,-5.47825 3.33621,-8.00314c-1.95435,0.00363 -3.90458,0.00056 -4.33545,0.00056c-26.66667,0 -53.33333,0 -80,0c0,0 -6.25,0 -6.25,-6.25c0,-6.25 6.25,-6.25 6.25,-6.25c26.66667,0 53.33333,0 80,0c2.41217,0 4.84484,0.36184 7.23635,0.04683c4.4506,-0.58623 9.20536,-4.33543 13.27411,2.25406c1.55851,2.52407 -1.18296,5.81557 -1.896,8.69506c-0.89604,3.61852 -3.50267,5.98658 -4.75269,9.42247c-0.89888,2.47072 -2.29629,6.21318 -2.69248,8.83272c-0.14955,0.98875 0.17503,2.01544 0,3c-0.07607,0.4279 -2.2152,7.06717 -2.49109,7.61047c-0.73173,1.44095 -2.06431,2.55244 -2.65499,4.05673c-0.28476,0.72522 0.27531,1.56447 0.14608,2.3328c-0.46092,2.74041 -1.64291,4.07062 -1.96612,6.76251c-0.38674,3.22091 0.04683,6.99929 0.04683,10.23635c0,6.16239 -0.90104,12.93199 -0.0807,18.99886c0.28249,2.08917 1.65562,3.92013 2,6c0.16679,1.00729 0.11653,2.03515 0.09066,3.06009c2.69289,-1.41691 6.34483,-1.96518 8.97639,-2.26212c10.63055,-1.19955 22.07637,-0.04683 32.76365,-0.04683c5.83704,0 12.46097,0.80756 18.23635,0.04683c1.3626,-0.17948 2.63346,-0.85348 4,-1c2.57278,-0.27585 5.21108,0.46461 7.76251,0.03388c2.07877,-0.35094 3.92436,-1.631 6,-2c1.6678,-0.29649 3.4388,-0.1647 5.02472,-0.75997l2.97642,-0.32073c0,0 6.25,0 6.25,6.25zM413.42808,324.1246c-0.16534,0.06319 -0.4134,0.53031 -0.31985,0.40116c0.09996,-0.13801 0.20674,-0.27168 0.31985,-0.40116z"/><path d="M144.5,154.55c-6.25,0 -6.25,-6.25 -6.25,-6.25c0,-7.66667 0,-17.33333 0,-25c0,-29.66444 0,-59.32887 0,-88.99331c-1.31635,0.10728 -2.66119,0.42293 -3.93192,0.13054c-1.74934,-0.40253 -3.26065,-1.5563 -5,-2c-0.83414,-0.21279 -1.72941,0.1869 -2.58172,0.06594c-3.54551,-0.50317 -5.67525,-0.95317 -9.23635,-0.95317c-7.99792,0 -15.61584,0.26381 -23.55694,0.98428c-1.2215,0.11082 -2.46996,-0.23499 -3.67941,-0.0311c-2.71049,0.45693 -5.26452,1.73034 -8,2c-4.23405,0.41738 -8.50908,0.03844 -12.76365,0.04683c-5.61813,0.01107 -11.24426,0.26781 -16.85857,0.13144c-0.09134,3.76385 -0.16896,7.55542 0.09649,11.2302c0.4368,6.04684 1.57677,12.02952 2.00432,18.07702c0.3784,5.35236 0.00776,10.95842 0.00776,16.31134c0,11.66667 0,23.33333 0,35c0,14 0,28 0,42v3c0,0 0,6.25 -6.25,6.25c-6.25,0 -6.25,-6.25 -6.25,-6.25c0,-14 0,-31 0,-45c0,-11.66667 0,-23.33333 0,-35c0,-5.13946 0.37913,-10.54754 0.00776,-15.68866c-0.4331,-5.99563 -1.57175,-11.9267 -1.99568,-17.92298c-0.29628,-4.19077 -0.18649,-8.5182 -0.09201,-12.79875c-6.64537,-0.57524 -13.41656,-1.37576 -19.74177,-2.43218c-12.98688,-2.16902 -25.5775,-7.98953 -38.9283,-7.90743c0,0 -6.25,0 -6.25,-6.25c0,-6.25 6.25,-6.25 6.25,-6.25c14.17804,0.06475 27.28229,5.79965 41.0717,8.09257c8.78877,1.4614 18.4134,2.39473 27.31666,2.91951c6.52589,0.38465 13.07444,-0.02584 19.61164,-0.01208c3.74548,0.00789 7.51003,0.42518 11.23635,0.04683c2.73468,-0.27767 5.28787,-1.55289 8,-2c1.42105,-0.23427 2.88629,0.09953 4.32059,-0.0311c8.22922,-0.74954 16.15942,-1.01572 24.44306,-1.01572c3.86254,0 6.98429,0.50377 10.76365,1.04683c1.12805,0.16209 2.31148,-0.20568 3.41828,0.06594c1.74332,0.42783 3.27,1.52114 5,2c1.92752,0.53353 4.05093,-0.44848 6,0c1.74934,0.40253 3.27,1.52114 5,2c2.19072,0.60639 4.56657,-0.33633 6.81922,-0.03207c1.04461,0.14109 1.95807,0.84033 3,1c3.7353,0.57242 8.2005,-0.0807 11.99886,-0.0807c7.66652,0 15.33326,-0.04305 22.99886,0.0807c4.85374,-1.61791 9.92432,-1.0807 15.00114,-1.0807c8,0 16,0 24,0h2c0,0 6.25,0 6.25,6.25c0,6.25 -6.25,6.25 -6.25,6.25c-8,0 -18,0 -26,0c-4.46944,0 -8.74838,-0.49753 -12.99886,0.9193c-8.33393,0.09607 -16.66675,0.0807 -25.00114,0.0807c-4.52535,0 -9.53175,0.52297 -14.00114,-0.0807c-1.04461,-0.14109 -1.95807,-0.84033 -3,-1c-0.57733,-0.08847 -1.16157,-0.10372 -1.74886,-0.08401c0,28.97157 0,57.94314 0,86.91471c0,7.66667 0,15.33333 0,23v2c0,0 0,6.25 -6.25,6.25z"/></g></g></svg>