<svg version="1.1" xmlns="http://www.w3.org/2000/svg" xmlns:xlink="http://www.w3.org/1999/xlink" width="586.58261" height="244.77705" viewBox="0,0,586.58261,244.77705"><g transform="translate(29.74999,-53.81553)"><g data-paper-data="{&quot;isPaintingLayer&quot;:true}" fill-rule="nonzero" stroke="none" stroke-width="0.5" stroke-linecap="butt" stroke-linejoin="miter" stroke-miterlimit="10" stroke-dasharray="" stroke-dashoffset="0" style="mix-blend-mode: normal"><path d="M404.91942,285.88059c4.41942,4.41942 0,8.83884 0,8.83884l-4.02765,3.35483c-8.80469,0.7769 -17.49197,0.75306 -26.15542,-0.57108c-1.92835,-0.29473 -3.91527,0.24806 -5.85222,0.01641c-2.797,-0.33451 -5.6057,-0.59309 -8.38528,-1.05029c-1.04012,-0.17109 -1.95401,-0.86955 -3,-1c-1.5265,-0.19038 -3.08453,0.20841 -4.61472,0.05029c-4.52152,-0.46722 -8.70128,-2.4042 -13.14778,-3.01641c-6.73175,-0.92685 -13.36892,-0.95317 -20.23636,-0.95317c-5.336,0 -9.97227,1.24338 -15.23636,1.95317c-3.55744,0.47967 -3.77514,-0.33285 -7.24814,0.02553c-2.01688,0.20812 -3.98191,0.80399 -6,1c-2.24009,0.21756 -4.52706,-0.36557 -6.75186,-0.02553c-1.35859,0.20765 -2.63209,0.86696 -4,1c-8.41114,0.81804 -17.32981,0.04683 -25.76364,0.04683c-20.2109,0 -40.29031,-0.96384 -60.4845,-1.0213c-7.25188,1.23717 -14.13261,2.32963 -21.5155,2.0213c-2.46687,-0.10303 -5.00431,0.1536 -7.39177,-0.47575c-0.91166,-0.24032 -1.11274,-1.68115 -2,-2c-0.75611,-0.27171 -1.5718,0.50253 -2.37187,0.42892c-4.86319,-0.44745 -9.64702,-1.62928 -14.51957,-1.95959c-6.8692,-0.46567 -13.84507,0.00375 -20.73892,0.01826c-7.50824,0.01581 -16.38574,-0.26379 -23.87408,0.88992c-2.47689,0.38161 -4.75179,1.71403 -7.2369,2.03782c-0.58566,0.07631 -14.29066,0.06041 -15.86688,0.06041c-7.33334,0 -14.66667,0 -22,0c-7,0 -14,0 -21,0c-2.94179,0 -6.33154,-0.42945 -9.23635,-0.04683c-1.3626,0.17948 -2.63347,0.85348 -4,1c-4.23033,0.45357 -8.50907,0.04683 -12.76364,0.04683c-11,0 -22,0 -33,0c0,0 -6.25,0 -6.25,-6.25c0,-6.25 6.25,-6.25 6.25,-6.25c11,0 22,0 33,0c3.74549,0 7.51571,0.47741 11.23636,0.04683c1.36526,-0.158 2.63534,-0.83699 4,-1c3.43079,-0.40981 7.28586,-0.04683 10.76365,-0.04683c7,0 14,0 21,0c7.33333,0 14.66666,0 22,0c4.71108,0 9.46554,0.69919 14.13312,0.06041c2.32565,-0.31828 4.44177,-1.61377 6.7631,-1.96218c14.25061,-2.13887 29.22303,-1.1039 43.60378,-1.09823c6.54522,0.00258 12.87026,1.09755 19.26364,2.04683c1.86108,0.27633 3.83534,-0.14193 5.62813,0.42892c0.89837,0.28605 1.10488,1.70393 2,2c0.83904,0.27753 1.72675,-0.41229 2.60823,-0.47575c1.32989,-0.09575 2.66667,-0.00335 4,0c5.65144,0.01418 10.90374,-1.06708 16.4845,-1.9787c20.53972,-0.05136 40.96218,0.9787 61.5155,0.9787c7.90313,0 16.36066,0.85958 24.23636,0.04683c1.36711,-0.14108 2.63795,-0.81635 4,-1c3.55744,-0.47967 3.77514,0.33285 7.24814,-0.02553c2.01688,-0.20812 3.98191,-0.80399 6,-1c2.24009,-0.21756 4.52706,0.36557 6.75186,0.02553c5.7525,-0.87922 10.85535,-2.04683 16.76364,-2.04683c7.34218,0 14.56467,-0.01162 21.76364,1.04683c4.33214,0.63694 8.47591,2.56167 12.85222,2.98359c8.70709,0.83947 17.45639,1.68801 26.14779,3.01641c3.81308,0.58279 8.38317,-0.04683 12.23636,-0.04683c1.21315,0 2.65267,-0.27168 3.60823,0.47575l-0.02765,-0.64517c0,0 4.41942,-4.41942 8.83883,0z" fill="#5a00ff"/><path d="M91.01695,211.63612c-0.86769,0.55095 -2.01086,0.91388 -3.51695,0.91388c-6.25,0 -6.25,-6.25 -6.25,-6.25l6.25,-7.25c3.76409,0 8.34176,0.75325 11.99886,0.0807c1.03671,-0.19065 1.95539,-0.8589 3,-1c5.32075,-0.71866 10.94898,0.72201 16.23749,-0.03387c2.32389,-0.33216 4.44493,-1.59242 6.7625,-1.96613c2.38176,-0.38405 4.84563,0.28118 7.2375,-0.03387c1.3626,-0.17948 2.63796,-0.81635 4,-1c4.11486,-0.55483 8.61222,-0.04683 12.76364,-0.04683c8.98682,0.03973 17.39828,-2.97124 26.23636,-3.95317c9.00075,-1 18.71363,-0.04683 27.76364,-0.04683c19,0 38,0 57,0c1.9998,0 4.0171,0.34867 5.99886,0.0807c2.08917,-0.28249 3.91427,-1.69312 6,-2c2.43559,-0.35835 4.94335,0.262 7.38528,-0.05029c2.99948,-0.3836 5.85655,-1.57125 8.85222,-1.98359c6.34994,-0.87405 13.02847,0.40942 19.41802,-0.03727c6.567,-0.45909 12.3467,-2.25268 18.83012,-2.98826c9.50085,-1.07792 18.93684,-1.0213 28.51551,-1.0213c8,0 16,0 24,0c4.04275,0 8.79022,-0.64453 12.76364,0.04683c4.06928,0.70804 8.10838,1.81096 12.23636,1.95317c0.73464,0.02531 1.49159,0.50089 2.18885,0.26818c1.14003,-0.38049 1.84582,-1.66485 3,-2c3.37054,-0.97872 8.27414,-0.33417 11.81115,-0.26818c1.43295,0.02674 2.92823,-0.2873 4.29744,0.13615c3.37756,1.04457 6.40183,3.03227 9.73729,4.20433c5.30584,1.86444 10.91134,2.7308 16.35703,4.13527c1.56645,0.96149 2.96573,2.27388 4.69935,2.88445c3.52567,1.24171 5.89123,0.34091 9.35194,0.65552c9.24374,0.84034 18.22495,0.98428 27.55694,0.98428c8.56655,0 16.73084,0.61046 25.00114,2.0807c2.07564,0.369 3.9167,1.677 6,2c1.13178,0.17548 2.3335,-0.22788 3.43481,0.08649c2.61981,0.7478 4.9509,2.30695 7.54047,3.15354c0,0 5.92927,1.97642 3.95284,7.90569c-1.97642,5.92927 -7.9057,3.95285 -7.9057,3.95285c-2.22895,-0.7538 -4.19734,-2.19921 -6.45953,-2.84646c-0.82254,-0.23534 -1.72264,0.23509 -2.56519,0.08649c-2.07614,-0.36616 -3.91552,-1.68473 -6,-2c-2.98597,-0.45162 -6.02397,-0.504 -9,-1c-1.03975,-0.17329 -1.9528,-0.87965 -3,-1c-3.64241,-0.41861 -7.33247,0.0807 -10.99886,0.0807c-9.62126,0 -18.9068,-0.1488 -28.44306,-1.01573c-4.22236,-0.38385 -8.6097,-0.05324 -12.64806,-1.34448c-1.95213,-0.62418 -3.53377,-2.07703 -5.30065,-3.11555c-1.90143,-0.45663 -14.43567,-3.43671 -15.64297,-3.86473c-2.85672,-1.01279 -5.41754,-2.75085 -8.26271,-3.79567c-1.47206,-0.54058 -3.13438,0.13616 -4.70256,0.13616c-1.33333,0 -2.66845,0.06882 -4,0c-0.4057,-0.02097 -0.81343,-0.42339 -1.18885,-0.26817c-1.11067,0.45919 -1.8361,1.70039 -3,2c-1.87789,0.48341 -3.87239,0.2311 -5.81115,0.26817c-4.63749,0.08868 -9.2075,-1.17748 -13.76364,-2.04683c-3.42122,-0.65279 -7.7398,0.04683 -11.23636,0.04683c-8,0 -16,0 -24,0c-9.25192,0 -18.30818,-0.01501 -27.48449,0.9787c-6.59041,0.71368 -12.42251,2.52103 -19.16988,3.01173c-6.06858,0.44134 -12.58164,-0.94096 -18.58198,-0.03726c-3.08764,0.46502 -6.04867,1.63535 -9.14778,2.01641c-2.18849,0.26909 -4.42964,-0.34574 -6.61472,-0.05029c-2.08917,0.28249 -3.91427,1.69312 -6,2c-0.65817,0.09684 -6.53843,0.0807 -8.00114,0.0807c-19,0 -38,0 -57,0c-8.52633,0 -17.76143,-0.98859 -26.23636,-0.04683c-3.10336,0.34485 -6.04555,1.66164 -9.14778,2.01641c-1.19722,0.13691 -2.42129,-0.21698 -3.61472,-0.05029c-4.99151,0.69723 -9.80854,2.06233 -15.00114,2.0807c-3.60919,0 -7.6847,-0.58967 -11.23636,-0.04683c-1.35859,0.20765 -2.63533,0.83699 -4,1c-2.23829,0.26737 -4.54263,-0.42577 -6.7625,-0.03387c-2.46779,0.43567 -4.75672,1.67959 -7.2375,2.03387c-5.1467,0.73502 -10.65498,-0.81658 -15.76251,-0.03387c-1.04193,0.15967 -1.95824,0.83919 -3,1c-3.33212,0.51435 -6.97031,0.3056 -10.48419,0.16682z" fill="#5a00ff"/><path d="M91.25,68.30001c0,-6.25 6.25,-6.25 6.25,-6.25h2c1.66651,0 3.35773,0.37042 4.99886,0.0807c2.46778,-0.43567 4.7499,-1.73113 7.23749,-2.03388c0.47561,-0.05788 0.93758,0.63128 1.37187,0.42893c0.8546,-0.39819 1.10601,-1.70057 2,-2c1.71083,-0.57301 3.58984,-0.38447 5.39177,-0.47575c11.51923,-0.58352 23.14239,0.69418 34.65438,0.00956c3.01314,-0.17919 5.98664,-0.82462 9,-1c11.6978,-0.68084 23.62513,-0.00956 35.34562,-0.00956c11.79192,0.02639 23.49776,1.21074 35.28322,2.00642c10.36312,0.69965 20.86515,-0.66753 31.23229,0.01488c2.02321,0.13318 3.97974,0.82784 6,1c5.3594,0.45672 11.10615,-0.0213 16.4845,-0.0213c7.60007,0 15.87575,0.73156 23.48449,0.0213c2.01881,-0.18845 3.98191,-0.804 6,-1c6.12448,-0.59483 11.80646,0.22776 17.89965,-0.99088c6.71914,-0.02683 12.52643,-0.47215 19.1728,-1.01469c9.36113,-0.76414 19.04135,-0.01572 28.44306,-0.01572c12.33333,0 24.66667,0 37,0c3.66237,0 7.33729,-0.06058 11,0c1.27308,0.02105 2.57303,0.37924 3.81808,0.11277c1.75531,-0.37566 3.23311,-1.68324 5,-2c4.17129,-0.7478 8.48629,-0.39479 12.66641,-1.09148c14.17161,-0.05472 28.34383,-0.0213 42.51551,-0.0213c8.04777,0 16.36181,-0.53552 24.38836,0.01208c3.07585,0.20985 6.16694,0.49995 9.17263,1.18599c2.593,0.59185 4.80184,2.54611 7.44015,2.88263c2.31458,0.29523 4.71566,-0.47563 7,0c1.82749,0.3805 3.63457,0.98002 5.28468,1.85273c1.29516,0.68498 2.26246,2.06012 3.69061,2.3873c0,0 5.92927,1.97642 3.95284,7.90569c-1.97642,5.92927 -7.9057,3.95285 -7.9057,3.95285c-2.26977,-0.84941 -4.40846,-2.10945 -6.30939,-3.61271c-0.70986,-0.56136 -1.80918,-0.06656 -2.71418,-0.06656c-1.66727,0 -3.35256,0.16819 -5.00114,-0.0807c-3.00258,-0.45331 -5.60316,-2.42527 -8.55985,-3.11737c-4.80677,-1.12516 -9.56137,-0.8057 -14.43901,-0.80192c-19.16093,0.01483 -38.32371,0.06969 -57.48449,-0.0213c-2,0.33334 -3.9789,0.83799 -6,1c-1.77243,0.14208 -3.58504,-0.41442 -5.33359,-0.09148c-1.7652,0.32601 -3.23615,1.66673 -5,2c-5.13051,0.96939 -11.92632,0.11277 -17.18192,0.11277c-12.33333,0 -24.66667,0 -37,0c-9.09555,0 -18.50885,-0.78633 -27.55694,-0.01573c-6.46738,0.55081 -12.3089,1.01636 -18.8272,0.98531c-6.15382,1.23077 -11.94916,0.37438 -18.10035,1.00912c-6.70981,0.69239 -12.69784,1.0213 -19.51551,1.0213c-9.30535,0 -19.20728,0.73828 -28.5155,-0.0213c-2.02087,-0.16491 -3.97703,-0.86331 -6,-1c-10.20719,-0.68969 -20.55639,0.68731 -30.76771,0.01488c-11.58333,-0.76278 -23.13326,-2.02266 -34.71678,-1.99358c-11.48686,0 -23.19167,-0.69125 -34.65438,-0.00956c-8.54133,0.50795 -16.76099,1.00956 -25.34562,1.00956c-5,0 -10,0 -15,0c-1.33334,0 -2.67372,0.13693 -4,0c-0.25603,-0.02644 -0.386,-0.60562 -0.60823,-0.47575c-0.814,0.4757 -1.11476,1.6756 -2,2c-1.45472,0.53309 -3.09837,0.18348 -4.62813,0.42892c-2.31786,0.37189 -4.44494,1.59243 -6.76251,1.96613c-0.62556,0.10087 -5.94709,0.0807 -7.00114,0.0807h-2c0,0 -6.25,0 -6.25,-6.25z" fill="#5a00ff"/><path d="M386.42927,120.27643c-1.97642,5.92927 -7.90569,3.95285 -7.90569,3.95285l-2.02472,-0.75997c-2.68223,0.10829 -4.36501,0.59361 -6.99772,1c-1.97659,0.30511 -4.01243,-0.22262 -6,0c-1.95546,0.21902 -3.29052,2.29887 -5.18999,2.81253c-1.87188,0.5062 -3.8741,0.17878 -5.81115,0.26817c-5.79937,0 -12.50428,-0.92293 -18.23635,-0.04683c-1.35859,0.20765 -2.63533,0.83699 -4,1c-6.71174,0.80172 -14.00004,0.04683 -20.76365,0.04683c-13.33333,0 -26.66667,0 -40,0c-4.76123,0 -9.35062,0.18023 -13.99886,0.9193c-2.47486,0.3935 -4.75672,1.67959 -7.23749,2.03388c-8.56046,1.22255 -17.56956,-0.97562 -26.14779,0.01641c-1.68842,0.19526 -3.30698,0.84982 -5,1c-4.51942,0.40091 -9.34327,-0.53822 -13.85221,-0.01641c-1.36526,0.158 -2.63346,0.85348 -4,1c-4.48636,0.48101 -7.91938,-0.28622 -12.2478,0.86022c-12.61526,3.14827 -25.58368,2.18661 -38.51585,2.18661c-24.70771,0 -49.29444,-1 -74,-1c-12.33333,0 -24.66667,0 -37,0c-5.39242,0 -11.11313,-0.57557 -16.4845,-0.0213c-12.78981,1.31978 -25.62269,1.0213 -38.5155,1.0213c0,0 -6.25,0 -6.25,-6.25c0,-6.25 6.25,-6.25 6.25,-6.25c10.39037,0 21.12985,0.77284 31.4845,0.0213c2.02227,-0.14678 3.98191,-0.804 6,-1c5.72394,-0.55593 11.77432,-0.0213 17.5155,-0.0213c12.33333,0 24.66667,0 37,0c23.70791,0 47.29483,1 71,1c12.76946,0 26.0595,1.29865 38.48415,-1.81339c4.84146,-1.16119 8.93093,-0.58183 13.7522,-1.13978c1.36526,-0.158 2.63346,-0.85348 4,-1c4.67687,-0.50144 9.47496,0.4199 14.14779,-0.01641c4.67469,-0.43648 8.86508,-1.03042 13.61586,-1.03042c5.53383,0 11.76218,0.82925 17.23635,0.04683c2.32389,-0.33215 4.44904,-1.56781 6.76251,-1.96612c5.26839,-0.90708 10.60773,-1.0807 16.00114,-1.0807c13.33333,0 26.66667,0 40,0c6.20805,0 13.09416,0.85588 19.23635,0.04683c1.3626,-0.17948 2.63796,-0.81635 4,-1c6.3299,-0.85351 13.38252,-0.04683 19.76365,-0.04683c3.52669,0.43209 5.15596,-2.20066 8.99886,-2.9193c1.96592,-0.36764 4.03299,0.36174 6,0c3.87494,-0.71261 6.94901,-1.08175 11.00228,-1l3.97528,1.24003c0,0 5.92927,1.97642 3.95285,7.90569z" fill="#5a00ff"/></g></g></svg>