<svg version="1.1" xmlns="http://www.w3.org/2000/svg" xmlns:xlink="http://www.w3.org/1999/xlink" width="521.5" height="275.56513" viewBox="0,0,521.5,275.56513"><g transform="translate(20.75,-32.04702)"><g data-paper-data="{&quot;isPaintingLayer&quot;:true}" fill="#5a00ff" fill-rule="nonzero" stroke="none" stroke-width="0.5" stroke-linecap="butt" stroke-linejoin="miter" stroke-miterlimit="10" stroke-dasharray="" stroke-dashoffset="0" style="mix-blend-mode: normal"><path d="M67.25,291.3c0,-23.33333 0,-46.66667 0,-70c0,0 0,-6.25 6.25,-6.25c6.25,0 6.25,6.25 6.25,6.25c0,23.33333 0,46.66667 0,70c0,1 0,2 0,3v0.75403c0.24808,-0.00254 0.49802,-0.00403 0.75,-0.00403c3.42808,0 6.79126,0.53397 10.02358,-0.67927l2.97642,-0.32073c0,0 6.25,0 6.25,6.25c0,6.25 -6.25,6.25 -6.25,6.25l0.97642,-0.32073c-4.73523,1.47708 -9.05136,1.32073 -13.97642,1.32073c-4.80688,0 -9.40376,0.45176 -14.00114,-1.0807c-6.11797,0.16464 -11.37086,-1.43835 -17.44192,-1.93502c-7.38385,-0.60408 -15.14709,0.01572 -22.55694,0.01572c-13.66667,0 -27.33333,0 -41,0c0,0 -6.25,0 -6.25,-6.25c0,-6.25 6.25,-6.25 6.25,-6.25c13.66667,0 27.33333,0 41,0c7.70296,0 15.76836,-0.6334 23.44306,0.01572c3.82014,0.3231 7.53054,1.45367 11.32059,2.0311c1.97335,0.30065 3.98453,0.10033 5.98635,0.04427c0,-1.10671 0,-2.28412 0,-2.8411z"/><path d="M382.25,42.3c0,-6.25 6.25,-6.25 6.25,-6.25h2c4.1726,0 8.0058,-0.25108 12.00114,1.0807c8.71503,-0.16761 17.34706,3.11432 26.23522,1.96612c5.02743,-0.64945 10.0572,-2.64542 15.14779,-3.01641c5.02014,-0.36586 10.08431,0.40915 15.10036,-0.00912c4.04115,-0.33698 7.95417,-1.72481 12,-2c2.91057,-0.19797 5.84082,0.21651 8.75186,0.02553c1.31718,-0.08641 5.75124,-1.80306 6.76251,-1.96612c0.66725,-0.10759 7.33183,-0.0807 8.00114,-0.0807c0,0 6.25,0 6.25,6.25c0,6.25 -6.25,6.25 -6.25,6.25c-1.9998,0 -4.02951,-0.42837 -5.99886,-0.0807c-2.46779,0.43566 -4.74082,1.81846 -7.23749,2.03388c-3.07131,0.265 -6.17196,-0.17524 -9.24814,0.02553c-4.04657,0.26411 -7.95882,1.66342 -12,2c-4.94941,0.41223 -9.94512,-0.35458 -14.89964,-0.00912c-4.98176,0.34736 -9.91694,2.38165 -14.85221,2.98359c-10.09597,1.23136 -19.83607,-1.88639 -29.76478,-2.03388c-3.45645,-1.15215 -6.38995,-0.9193 -9.99886,-0.9193h-2c0,0 -6.25,0 -6.25,-6.25z"/></g></g></svg>