<svg version="1.1" xmlns="http://www.w3.org/2000/svg" xmlns:xlink="http://www.w3.org/1999/xlink" width="525.58262" height="114.81564" viewBox="0,0,525.58262,114.81564"><g transform="translate(29.75,-183.77693)"><g data-paper-data="{&quot;isPaintingLayer&quot;:true}" fill="#5a00ff" fill-rule="nonzero" stroke="none" stroke-width="0.5" stroke-linecap="butt" stroke-linejoin="miter" stroke-miterlimit="10" stroke-dasharray="" stroke-dashoffset="0" style="mix-blend-mode: normal"><path d="M404.91942,285.88059c4.41942,4.41942 0,8.83883 0,8.83883l-4.02765,3.35483c-8.80469,0.7769 -17.49197,0.75306 -26.15542,-0.57107c-1.92835,-0.29473 -3.91527,0.24806 -5.85221,0.01641c-2.797,-0.33451 -5.6057,-0.59309 -8.38528,-1.05029c-1.04012,-0.17108 -1.95401,-0.86954 -3,-1c-1.5265,-0.19039 -3.08454,0.2084 -4.61472,0.05029c-4.52152,-0.46722 -8.70129,-2.4042 -13.14779,-3.01641c-6.73175,-0.92685 -13.36893,-0.95317 -20.23635,-0.95317c-5.336,0 -9.97227,1.24338 -15.23635,1.95317c-3.55744,0.47967 -3.77515,-0.33285 -7.24814,0.02553c-2.01688,0.20812 -3.98191,0.804 -6,1c-2.24009,0.21756 -4.52706,-0.36557 -6.75186,-0.02553c-1.35859,0.20765 -2.63209,0.86696 -4,1c-8.41114,0.81803 -17.32981,0.04683 -25.76365,0.04683c-20.2109,0 -40.29031,-0.96384 -60.4845,-1.0213c-7.25188,1.23718 -14.13261,2.32963 -21.5155,2.0213c-2.46687,-0.10302 -5.00431,0.1536 -7.39177,-0.47575c-0.91167,-0.24032 -1.11274,-1.68116 -2,-2c-0.75611,-0.27171 -1.5718,0.50254 -2.37187,0.42893c-4.8632,-0.44745 -9.64702,-1.62928 -14.51957,-1.95959c-6.8692,-0.46567 -13.84508,0.00375 -20.73892,0.01826c-7.50824,0.0158 -16.38574,-0.2638 -23.87408,0.88992c-2.47689,0.38161 -4.75179,1.71403 -7.2369,2.03783c-0.58565,0.07631 -14.29066,0.06041 -15.86688,0.06041c-7.33333,0 -14.66667,0 -22,0c-7,0 -14,0 -21,0c-2.94179,0 -6.33154,-0.42945 -9.23635,-0.04683c-1.3626,0.17948 -2.63346,0.85348 -4,1c-4.23033,0.45356 -8.50907,0.04683 -12.76365,0.04683c-11,0 -22,0 -33,0c0,0 -6.25,0 -6.25,-6.25c0,-6.25 6.25,-6.25 6.25,-6.25c11,0 22,0 33,0c3.74548,0 7.5157,0.47741 11.23635,0.04683c1.36526,-0.158 2.63533,-0.83699 4,-1c3.43079,-0.40981 7.28586,-0.04683 10.76365,-0.04683c7,0 14,0 21,0c7.33333,0 14.66667,0 22,0c4.71108,0 9.46554,0.69919 14.13312,0.06041c2.32565,-0.31828 4.44177,-1.61377 6.7631,-1.96217c14.25061,-2.13887 29.22303,-1.1039 43.60378,-1.09824c6.54521,0.00258 12.87026,1.09755 19.26365,2.04683c1.86108,0.27633 3.83533,-0.14193 5.62813,0.42893c0.89837,0.28606 1.10489,1.70393 2,2c0.83905,0.27753 1.72676,-0.41229 2.60823,-0.47575c1.32989,-0.09574 2.66667,-0.00335 4,0c5.65145,0.01418 10.90374,-1.06708 16.4845,-1.9787c20.53971,-0.05137 40.96217,0.9787 61.5155,0.9787c7.90313,0 16.36066,0.85958 24.23635,0.04683c1.36711,-0.14108 2.63796,-0.81635 4,-1c3.55744,-0.47967 3.77515,0.33285 7.24814,-0.02553c2.01688,-0.20812 3.98191,-0.804 6,-1c2.24009,-0.21756 4.52706,0.36557 6.75186,0.02553c5.75251,-0.87922 10.85535,-2.04683 16.76365,-2.04683c7.34218,0 14.56467,-0.01161 21.76365,1.04683c4.33214,0.63694 8.47591,2.56166 12.85221,2.98359c8.70709,0.83946 17.45639,1.68801 26.14779,3.01641c3.81308,0.5828 8.38317,-0.04683 12.23635,-0.04683c1.21315,0 2.65267,-0.27168 3.60823,0.47575l-0.02765,-0.64517c0,0 4.41942,-4.41942 8.83883,0z"/><path d="M47.01695,212.63612c-0.86769,0.55095 -2.01085,0.91388 -3.51695,0.91388c-6.25,0 -6.25,-6.25 -6.25,-6.25l6.25,-7.25c3.7641,0 8.34176,0.75325 11.99886,0.0807c1.03671,-0.19065 1.95539,-0.85891 3,-1c5.32075,-0.71867 10.94898,0.72201 16.23749,-0.03388c2.32389,-0.33215 4.44493,-1.59242 6.76251,-1.96612c2.38176,-0.38405 4.84563,0.28118 7.23749,-0.03388c1.3626,-0.17948 2.63796,-0.81635 4,-1c4.11486,-0.55484 8.61223,-0.04683 12.76365,-0.04683c8.98682,0.03973 17.39827,-2.97124 26.23635,-3.95317c9.00075,-1.00001 18.71363,-0.04683 27.76365,-0.04683c19,0 38,0 57,0c1.9998,0 4.01709,0.34867 5.99886,0.0807c2.08917,-0.28249 3.91427,-1.69312 6,-2c2.43559,-0.35836 4.94335,0.262 7.38528,-0.05029c2.99948,-0.38359 5.85655,-1.57125 8.85221,-1.98359c6.34995,-0.87405 13.02847,0.40943 19.41802,-0.03726c6.567,-0.4591 12.3467,-2.25269 18.83012,-2.98827c9.50085,-1.07792 18.93683,-1.0213 28.5155,-1.0213c8,0 16,0 24,0c4.04275,0 8.79022,-0.64453 12.76365,0.04683c4.06928,0.70804 8.10838,1.81096 12.23635,1.95317c0.73464,0.02531 1.49159,0.50089 2.18885,0.26817c1.14003,-0.3805 1.84582,-1.66485 3,-2c3.37053,-0.97872 8.27414,-0.33417 11.81115,-0.26817c1.43295,0.02674 2.92823,-0.2873 4.29745,0.13615c3.37756,1.04457 6.40183,3.03227 9.73729,4.20433c5.30584,1.86445 10.91134,2.7308 16.35704,4.13527c1.56645,0.96148 2.96573,2.27388 4.69935,2.88445c3.52567,1.24171 5.89123,0.34091 9.35194,0.65552c9.24374,0.84034 18.22496,0.98428 27.55694,0.98428c8.56654,0 16.73084,0.61046 25.00114,2.0807c2.07564,0.369 3.91671,1.677 6,2c1.13178,0.17547 2.3335,-0.22787 3.43482,0.08649c2.61981,0.74781 4.95089,2.30695 7.54047,3.15354c0,0 5.92927,1.97642 3.95285,7.90569c-1.97642,5.92927 -7.90569,3.95285 -7.90569,3.95285c-2.22895,-0.7538 -4.19734,-2.19921 -6.45953,-2.84646c-0.82254,-0.23535 -1.72264,0.23509 -2.56518,0.08649c-2.07614,-0.36617 -3.91552,-1.68473 -6,-2c-2.98598,-0.45162 -6.02397,-0.504 -9,-1c-1.03975,-0.17329 -1.9528,-0.87965 -3,-1c-3.64241,-0.41862 -7.33248,0.0807 -10.99886,0.0807c-9.62126,0 -18.9068,-0.14879 -28.44306,-1.01572c-4.22236,-0.38385 -8.6097,-0.05323 -12.64806,-1.34448c-1.95213,-0.62418 -3.53377,-2.07703 -5.30065,-3.11555c-1.90143,-0.45663 -14.43566,-3.43671 -15.64296,-3.86473c-2.85672,-1.01279 -5.41755,-2.75085 -8.26271,-3.79567c-1.47206,-0.54058 -3.13438,0.13615 -4.70255,0.13615c-1.33333,0 -2.66844,0.06882 -4,0c-0.4057,-0.02097 -0.81343,-0.42339 -1.18885,-0.26817c-1.11067,0.45919 -1.83609,1.70039 -3,2c-1.87789,0.48341 -3.87239,0.2311 -5.81115,0.26817c-4.63749,0.08868 -9.20751,-1.17748 -13.76365,-2.04683c-3.42121,-0.65279 -7.7398,0.04683 -11.23635,0.04683c-8,0 -16,0 -24,0c-9.25192,0 -18.30818,-0.015 -27.4845,0.9787c-6.59041,0.71368 -12.4225,2.52103 -19.16988,3.01173c-6.06857,0.44134 -12.58164,-0.94095 -18.58198,-0.03726c-3.08764,0.46502 -6.04866,1.63535 -9.14779,2.01641c-2.18849,0.26909 -4.42964,-0.34575 -6.61472,-0.05029c-2.08917,0.28249 -3.91427,1.69312 -6,2c-0.65817,0.09684 -6.53843,0.0807 -8.00114,0.0807c-19,0 -38,0 -57,0c-8.52634,0 -17.76143,-0.98858 -26.23635,-0.04683c-3.10336,0.34485 -6.04554,1.66164 -9.14779,2.01641c-1.19722,0.13691 -2.42128,-0.21699 -3.61472,-0.05029c-4.99151,0.69723 -9.80854,2.06233 -15.00114,2.0807c-3.60919,0 -7.68469,-0.58967 -11.23635,-0.04683c-1.35859,0.20765 -2.63533,0.83699 -4,1c-2.23829,0.26737 -4.54264,-0.42577 -6.76251,-0.03388c-2.46779,0.43566 -4.75672,1.67959 -7.23749,2.03388c-5.14671,0.73502 -10.65499,-0.81658 -15.76251,-0.03388c-1.04193,0.15967 -1.95825,0.83919 -3,1c-3.33212,0.51435 -6.97031,0.3056 -10.48419,0.16682z"/></g></g></svg>